<svg xmlns="http://www.w3.org/2000/svg" viewBox="0 0 560 420" role="img" aria-label="Иллюстрация простой email-рассылки">
  <defs>
    <linearGradient id="btn" x1="132" y1="236" x2="216" y2="264" gradientUnits="userSpaceOnUse">
      <stop stop-color="#4C8CFF"/>
      <stop offset="1" stop-color="#2F6BEE"/>
    </linearGradient>
  </defs>

  <rect width="560" height="420" rx="32" fill="#EAF2FF"/>
  <circle cx="92" cy="352" r="54" fill="#D5E5FF"/>
  <circle cx="488" cy="92" r="40" fill="#D5E5FF"/>

  <path d="M42 72C84 56 128 48 176 48C224 48 268 56 310 72" fill="none" stroke="#8DB9FF" stroke-width="6" stroke-linecap="round" stroke-dasharray="2 16"/>
  <path d="M250 350C292 366 336 374 384 374C432 374 476 366 518 350" fill="none" stroke="#8DB9FF" stroke-width="6" stroke-linecap="round" stroke-dasharray="2 16"/>

  <rect x="104" y="92" width="228" height="168" rx="22" fill="white" stroke="#CFE0FF" stroke-width="4"/>
  <rect x="132" y="122" width="112" height="12" rx="6" fill="#C7D3E4"/>
  <rect x="132" y="154" width="156" height="10" rx="5" fill="#D5DEEB"/>
  <rect x="132" y="182" width="134" height="10" rx="5" fill="#D5DEEB"/>
  <rect x="132" y="210" width="92" height="10" rx="5" fill="#D5DEEB"/>
  <rect x="132" y="236" width="84" height="28" rx="14" fill="url(#btn)"/>

  <g transform="translate(332 118)">
    <path d="M0 86L150 0L104 176L66 108L0 86Z" fill="#2F6BEE"/>
    <path d="M0 86L150 0L86 86H0Z" fill="#3F80FF"/>
    <path d="M66 108L150 0L104 176L66 108Z" fill="#255CDA"/>
    <path d="M66 108L86 86" stroke="#AFCBFF" stroke-width="4" stroke-linecap="round"/>
    <path d="M86 86L150 0" stroke="#AFCBFF" stroke-width="4" stroke-linecap="round"/>
  </g>
</svg>
