<svg xmlns="http://www.w3.org/2000/svg" width="560" height="120" viewBox="0 0 560 120" role="img" aria-label="Письмолёт">
  <defs>
    <linearGradient id="logoBlue" x1="0" y1="0" x2="1" y2="1">
      <stop offset="0" stop-color="#2563EB"/>
      <stop offset="1" stop-color="#0F6DEB"/>
    </linearGradient>
  </defs>
  <g transform="translate(8 14)">
    <rect x="0" y="24" width="106" height="72" rx="18" fill="url(#logoBlue)"/>
    <path d="M10 45L53 76L96 45" fill="none" stroke="#FFFFFF" stroke-width="7" stroke-linecap="round" stroke-linejoin="round"/>
    <path d="M11 86L40 62" fill="none" stroke="#FFFFFF" stroke-width="7" stroke-linecap="round" opacity=".96"/>
    <path d="M95 86L66 62" fill="none" stroke="#FFFFFF" stroke-width="7" stroke-linecap="round" opacity=".96"/>
    <path d="M78 48L144 18L118 92L98 66L78 48Z" fill="url(#logoBlue)"/>
    <path d="M98 66L118 92L111 62" fill="#93C5FD" opacity=".95"/>
    <path d="M78 48L144 18L98 66" fill="#1D4ED8" opacity=".16"/>
    <path d="M78 48L144 18L118 92L98 66L78 48Z" fill="none" stroke="#FFFFFF" stroke-width="4" stroke-linejoin="round" opacity=".96"/>
  </g>
  <text x="172" y="60" font-family="Arial, Helvetica, sans-serif" font-size="44" font-weight="800" letter-spacing="-1.2">
    <tspan fill="#172033">Письмо</tspan><tspan fill="#2563EB">лёт</tspan>
  </text>
  <text x="174" y="91" fill="#64748B" font-family="Arial, Helvetica, sans-serif" font-size="16" font-weight="500">Простые email-рассылки</text>
</svg>
